<?xml version="1.0" standalone="no"?>
<!DOCTYPE svg PUBLIC "-//W3C//DTD SVG 20010904//EN"
 "http://www.w3.org/TR/2001/REC-SVG-20010904/DTD/svg10.dtd">
<svg version="1.0" xmlns="http://www.w3.org/2000/svg"
 width="512.000000pt" height="512.000000pt" viewBox="0 0 512.000000 512.000000"
 preserveAspectRatio="xMidYMid meet">
<metadata>
Created by potrace 1.11, written by Peter Selinger 2001-2013
</metadata>
<g transform="translate(0.000000,512.000000) scale(0.100000,-0.100000)"
fill="#000000" stroke="none">
<path d="M2335 5113 c-332 -26 -717 -145 -1018 -314 -517 -290 -912 -739
-1136 -1292 -46 -113 -53 -96 77 -190 282 -203 654 -378 972 -457 25 -6 52
-13 61 -16 13 -4 18 10 29 73 7 43 25 128 40 188 173 673 595 1324 1245 1922
l100 92 -165 -1 c-91 -1 -183 -3 -205 -5z"/>
<path d="M2949 5052 c-74 -57 -238 -204 -344 -308 -180 -178 -272 -280 -442
-494 -41 -52 -138 -189 -191 -273 -237 -367 -415 -806 -457 -1124 -8 -60 -20
-53 125 -75 132 -20 594 -17 745 5 113 17 250 42 286 53 10 3 28 36 44 82 64
184 218 463 358 646 286 377 626 673 1106 963 10 6 -7 24 -60 65 -288 219
-609 372 -962 457 -69 17 -136 31 -149 31 -13 0 -39 -13 -59 -28z"/>
<path d="M4308 4361 c-127 -72 -170 -99 -252 -154 -76 -51 -250 -180 -266
-197 -3 -3 -34 -30 -70 -60 -36 -30 -70 -59 -76 -65 -8 -7 3 -25 40 -61 51
-52 120 -126 186 -200 313 -351 609 -860 775 -1330 44 -124 112 -348 121 -399
3 -16 14 -68 25 -115 11 -47 29 -143 40 -215 11 -71 21 -131 23 -132 7 -8 124
269 140 332 1 6 12 42 23 80 23 77 59 230 67 285 2 19 10 73 18 120 17 114 17
518 -1 630 -53 343 -120 559 -258 835 -48 97 -146 263 -180 305 -6 8 -39 51
-72 95 -66 89 -77 101 -172 203 l-65 70 -46 -27z"/>
<path d="M3430 3674 c-229 -241 -431 -564 -530 -851 l-32 -93 28 -34 c329
-390 504 -690 649 -1106 34 -100 98 -335 110 -410 3 -19 8 -42 10 -50 4 -17
11 -59 20 -135 4 -27 8 -60 10 -73 17 -106 26 -535 12 -619 -6 -39 -6 -39 123
35 307 177 583 421 788 699 l54 73 -6 87 c-10 142 -16 200 -31 298 -3 17 -7
46 -10 65 -2 19 -7 46 -10 60 -2 14 -10 50 -16 80 -136 691 -507 1398 -1010
1924 l-104 108 -55 -58z"/>
<path d="M77 3183 c-10 -16 -48 -222 -61 -328 -26 -214 -16 -520 25 -757 l13
-78 85 -54 c453 -284 937 -452 1541 -535 80 -11 190 -23 245 -27 55 -3 109 -8
120 -10 26 -5 550 -5 590 0 17 2 75 7 130 10 55 4 116 9 135 11 312 38 460 63
460 76 0 10 -46 142 -64 184 -82 189 -137 297 -223 440 -56 91 -176 264 -210
300 -10 11 -30 36 -45 55 -14 19 -53 63 -85 97 l-58 62 -75 -15 c-208 -41
-390 -58 -610 -57 -114 0 -302 9 -350 18 -14 2 -63 9 -110 15 -448 59 -981
271 -1358 538 -87 62 -90 64 -95 55z"/>
<path d="M160 1670 c11 -28 29 -74 41 -102 30 -76 126 -261 182 -353 296 -476
746 -849 1259 -1044 168 -63 364 -117 493 -135 22 -3 74 -11 115 -17 189 -28
564 -16 775 25 155 30 224 48 356 92 l106 36 10 87 c6 47 10 183 10 301 0 229
-16 396 -60 605 l-23 110 -29 -1 c-17 0 -48 -3 -70 -7 -154 -25 -311 -47 -375
-52 -41 -4 -91 -9 -110 -11 -170 -19 -663 -25 -845 -11 -49 4 -123 10 -164 13
-41 2 -77 6 -80 9 -4 2 -38 6 -76 10 -56 6 -319 50 -410 69 -117 25 -417 109
-447 126 -10 6 -23 10 -30 10 -37 0 -428 171 -553 242 -98 55 -98 55 -75 -2z"/>
</g>
</svg>
